<svg width="32" height="32" viewBox="0 0 32 32" xmlns="http://www.w3.org/2000/svg">
  <!-- Calendário principal -->
  <rect x="4" y="7" width="24" height="20" rx="2" ry="2" fill="none" stroke="#dc3545" stroke-width="2"/>
  
  <!-- Topo do calendário -->
  <rect x="4" y="7" width="24" height="5" rx="2" ry="2" fill="#dc3545"/>
  
  <!-- Anéis de encadernação -->
  <rect x="10" y="3" width="2" height="6" rx="1" ry="1" fill="#dc3545"/>
  <rect x="20" y="3" width="2" height="6" rx="1" ry="1" fill="#dc3545"/>
  
  <!-- Grade do calendário -->
  <line x1="10" y1="15" x2="10" y2="24" stroke="#dc3545" stroke-width="1" opacity="0.4"/>
  <line x1="16" y1="15" x2="16" y2="24" stroke="#dc3545" stroke-width="1" opacity="0.4"/>
  <line x1="22" y1="15" x2="22" y2="24" stroke="#dc3545" stroke-width="1" opacity="0.4"/>
  
  <line x1="7" y1="15" x2="25" y2="15" stroke="#dc3545" stroke-width="1" opacity="0.4"/>
  <line x1="7" y1="19" x2="25" y2="19" stroke="#dc3545" stroke-width="1" opacity="0.4"/>
  <line x1="7" y1="23" x2="25" y2="23" stroke="#dc3545" stroke-width="1" opacity="0.4"/>
  
  <!-- Pontos de destaque para datas importantes -->
  <circle cx="13" cy="17" r="1.5" fill="#dc3545"/>
  <circle cx="19" cy="21" r="1.5" fill="#dc3545"/>
  
  <!-- Relógio pequeno no canto inferior direito -->
  <circle cx="24" cy="24" r="4" fill="none" stroke="#dc3545" stroke-width="1.5"/>
  <line x1="24" y1="24" x2="24" y2="21.5" stroke="#dc3545" stroke-width="1.5"/>
  <line x1="24" y1="24" x2="26.5" y2="24" stroke="#dc3545" stroke-width="1.5"/>
  
  <!-- Indicador de notificação -->
  <circle cx="26" cy="9" r="2.5" fill="#dc3545"/>
</svg>